<svg width="623" height="268" viewBox="0 0 623 268" fill="none" xmlns="http://www.w3.org/2000/svg">
<path d="M13.7006 15.6775C16.4884 15.6775 18.7483 13.7877 18.7483 11.4566C18.7483 9.12545 16.4884 7.23569 13.7006 7.23569C10.9129 7.23569 8.65295 9.12545 8.65295 11.4566C8.65295 13.7877 10.9129 15.6775 13.7006 15.6775Z" fill="#6C63FF"/>
<path d="M31.0068 15.6775C33.7946 15.6775 36.0545 13.7877 36.0545 11.4566C36.0545 9.12545 33.7946 7.23569 31.0068 7.23569C28.219 7.23569 25.9591 9.12545 25.9591 11.4566C25.9591 13.7877 28.219 15.6775 31.0068 15.6775Z" fill="#6C63FF"/>
<path d="M48.3129 15.6775C51.1007 15.6775 53.3606 13.7877 53.3606 11.4566C53.3606 9.12545 51.1007 7.23569 48.3129 7.23569C45.5252 7.23569 43.2653 9.12545 43.2653 11.4566C43.2653 13.7877 45.5252 15.6775 48.3129 15.6775Z" fill="#6C63FF"/>
<path d="M623 268H0V72H623V268ZM1.4798 267.285H621.52V72.7153H1.4798V267.285Z" fill="#3F3D56"/>
<path d="M623 72H0V0H623V72ZM1.4798 71.7372H621.52V0.262774H1.4798V71.7372Z" fill="#3F3D56"/>
<path d="M605.716 18.2914H0V19.4973H605.716V18.2914Z" fill="#3F3D56"/>
<path d="M15.143 14.4715C14.002 14.4715 12.8867 14.1886 11.9381 13.6585C10.9894 13.1285 10.25 12.3751 9.8134 11.4937C9.37678 10.6122 9.26252 9.64231 9.48511 8.70658C9.7077 7.77084 10.2571 6.91132 11.0639 6.23669C11.8707 5.56207 12.8985 5.10264 14.0175 4.91651C15.1365 4.73038 16.2964 4.82591 17.3505 5.19102C18.4046 5.55612 19.3056 6.17441 19.9394 6.96768C20.5733 7.76096 20.9116 8.69359 20.9116 9.64766C20.9099 10.9266 20.3015 12.1527 19.2201 13.057C18.1386 13.9613 16.6724 14.47 15.143 14.4715ZM15.143 6.02978C14.2873 6.02978 13.4508 6.24197 12.7393 6.6395C12.0278 7.03704 11.4733 7.60208 11.1458 8.26316C10.8183 8.92424 10.7326 9.65167 10.8996 10.3535C11.0665 11.0553 11.4786 11.6999 12.0836 12.2059C12.6887 12.7119 13.4596 13.0564 14.2989 13.196C15.1381 13.3356 16.0081 13.264 16.7986 12.9901C17.5892 12.7163 18.2649 12.2526 18.7403 11.6576C19.2157 11.0627 19.4695 10.3632 19.4695 9.64766C19.4681 8.68848 19.0119 7.76891 18.2008 7.09066C17.3897 6.41242 16.29 6.0309 15.143 6.02978V6.02978Z" fill="#3F3D56"/>
<path d="M32.4491 14.4715C31.3081 14.4715 30.1928 14.1886 29.2441 13.6585C28.2955 13.1285 27.5561 12.3751 27.1195 11.4937C26.6828 10.6122 26.5686 9.64231 26.7912 8.70658C27.0138 7.77084 27.5632 6.91132 28.37 6.23669C29.1767 5.56207 30.2046 5.10264 31.3237 4.91651C32.4427 4.73038 33.6025 4.82591 34.6566 5.19102C35.7107 5.55612 36.6117 6.17441 37.2455 6.96768C37.8794 7.76096 38.2178 8.69359 38.2178 9.64766C38.216 10.9266 37.6076 12.1527 36.5262 13.057C35.4447 13.9613 33.9785 14.47 32.4491 14.4715V14.4715ZM32.4491 6.02978C31.5933 6.02978 30.7569 6.24197 30.0454 6.6395C29.3339 7.03704 28.7793 7.60208 28.4519 8.26316C28.1244 8.92424 28.0387 9.65167 28.2056 10.3535C28.3726 11.0553 28.7847 11.6999 29.3897 12.2059C29.9948 12.7119 30.7657 13.0564 31.605 13.196C32.4442 13.3356 33.3142 13.264 34.1048 12.9901C34.8953 12.7163 35.571 12.2526 36.0464 11.6576C36.5218 11.0627 36.7756 10.3632 36.7756 9.64766C36.7743 8.68848 36.318 7.76891 35.5069 7.09066C34.6958 6.41242 33.5961 6.0309 32.4491 6.02978V6.02978Z" fill="#3F3D56"/>
<path d="M49.7553 14.4715C48.6143 14.4715 47.499 14.1886 46.5503 13.6585C45.6017 13.1285 44.8623 12.3751 44.4257 11.4937C43.989 10.6122 43.8748 9.64231 44.0973 8.70658C44.3199 7.77084 44.8694 6.91132 45.6761 6.23669C46.4829 5.56207 47.5108 5.10264 48.6298 4.91651C49.7489 4.73038 50.9088 4.82591 51.9629 5.19101C53.017 5.55612 53.918 6.17439 54.5519 6.96767C55.1857 7.76094 55.524 8.69358 55.524 9.64765C55.5223 10.9266 54.9139 12.1527 53.8325 13.057C52.751 13.9613 51.2847 14.47 49.7553 14.4715V14.4715ZM49.7553 6.02978C48.8996 6.02978 48.0631 6.24196 47.3516 6.6395C46.6401 7.03704 46.0855 7.60207 45.758 8.26315C45.4306 8.92423 45.3449 9.65166 45.5118 10.3535C45.6788 11.0553 46.0908 11.6999 46.6959 12.2059C47.301 12.7118 48.0719 13.0564 48.9112 13.196C49.7505 13.3356 50.6204 13.264 51.411 12.9901C52.2016 12.7163 52.8773 12.2526 53.3527 11.6576C53.8281 11.0627 54.0819 10.3632 54.0819 9.64765C54.0805 8.68848 53.6243 7.76891 52.8132 7.09067C52.0021 6.41242 50.9024 6.0309 49.7553 6.02978V6.02978Z" fill="#3F3D56"/>
<path d="M623 72H0V20H623V72ZM3.27894 67.2727H619.721V24.7273H3.27894V67.2727Z" fill="#3F3D56"/>
<text fill="black" xml:space="preserve" style="white-space: pre" font-family="Roboto" font-size="36" font-weight="bold" letter-spacing="0em"><tspan x="252" y="59.3047">O Mnie</tspan></text>
<text fill="black" xml:space="preserve" style="white-space: pre" font-family="Roboto" font-size="20" letter-spacing="0em"><tspan x="12" y="108.336">Nazywam si&#x119; Filip Redlich i jestem studentem Teleinformatyki. &#10;</tspan><tspan x="12" y="131.336">Moje g&#x142;&#xf3;wne zainteresowanie z bran&#x17c;y IT jest tworzenie aplikacji&#10;</tspan><tspan x="12" y="154.336">oraz aplikacji u&#x142;atwiaj&#x105;cych &#x17c;ycie.&#10;</tspan><tspan x="12" y="177.336">Moje projekty sk&#x142;adaj&#x105; si&#x119; g&#x142;&#xf3;wnie z stron web po stronie backendu,&#10;</tspan><tspan x="12" y="200.336">ma&#x142;ych aplikacji automatyzuj&#x105;ce codzienne czynno&#x15b;ci oraz projekty&#10;</tspan><tspan x="12" y="223.336">hobbystyczne.</tspan></text>
</svg>
