<svg width="589" height="277" viewBox="0 0 589 277" fill="none" xmlns="http://www.w3.org/2000/svg">
<path d="M13.9259 16.1982C16.6257 16.1982 18.8143 14.2456 18.8143 11.8371C18.8143 9.42851 16.6257 7.47598 13.9259 7.47598C11.2261 7.47598 9.03748 9.42851 9.03748 11.8371C9.03748 14.2456 11.2261 16.1982 13.9259 16.1982Z" fill="#6C63FF"/>
<path d="M30.686 16.1982C33.3858 16.1982 35.5745 14.2456 35.5745 11.8371C35.5745 9.42851 33.3858 7.47598 30.686 7.47598C27.9862 7.47598 25.7976 9.42851 25.7976 11.8371C25.7976 14.2456 27.9862 16.1982 30.686 16.1982Z" fill="#6C63FF"/>
<path d="M47.4461 16.1982C50.1459 16.1982 52.3345 14.2456 52.3345 11.8371C52.3345 9.42851 50.1459 7.47598 47.4461 7.47598C44.7463 7.47598 42.5577 9.42851 42.5577 11.8371C42.5577 14.2456 44.7463 16.1982 47.4461 16.1982Z" fill="#6C63FF"/>
<path d="M588 277H1V74H588V277ZM2.39429 276.259H586.606V74.7409H2.39429V276.259Z" fill="#3F3D56"/>
<path d="M589 74.0082H1.01392V0H589V74.0082ZM2.41055 73.7381H587.603V0.270103H2.41055V73.7381Z" fill="#3F3D56"/>
<path d="M587.261 18.8988H0.657593V20.1448H587.261V18.8988Z" fill="#3F3D56"/>
<path d="M15.3227 14.9521C14.2178 14.9521 13.1376 14.6598 12.2189 14.1122C11.3002 13.5645 10.5841 12.7861 10.1613 11.8754C9.73845 10.9647 9.62781 9.96255 9.84337 8.99575C10.0589 8.02894 10.591 7.14086 11.3723 6.44383C12.1537 5.7468 13.1491 5.27212 14.2328 5.07981C15.3165 4.8875 16.4398 4.9862 17.4606 5.36343C18.4815 5.74066 19.354 6.37948 19.9679 7.1991C20.5817 8.01872 20.9094 8.98233 20.9094 9.96808C20.9077 11.2895 20.3185 12.5563 19.2712 13.4906C18.2239 14.425 16.8039 14.9506 15.3227 14.9521ZM15.3227 6.23005C14.494 6.23005 13.6839 6.44928 12.9949 6.86002C12.3058 7.27076 11.7688 7.85457 11.4517 8.5376C11.1345 9.22064 11.0515 9.97223 11.2132 10.6973C11.3749 11.4224 11.7739 12.0885 12.3599 12.6113C12.9459 13.134 13.6925 13.4901 14.5053 13.6343C15.3181 13.7785 16.1605 13.7045 16.9261 13.4216C17.6918 13.1386 18.3462 12.6595 18.8066 12.0448C19.267 11.4301 19.5127 10.7074 19.5127 9.96808C19.5114 8.97705 19.0696 8.02693 18.2841 7.32617C17.4986 6.6254 16.4336 6.2312 15.3227 6.23005Z" fill="#3F3D56"/>
<path d="M32.0827 14.9521C30.9778 14.9521 29.8976 14.6598 28.9789 14.1122C28.0602 13.5645 27.3441 12.7861 26.9213 11.8754C26.4984 10.9647 26.3878 9.96255 26.6034 8.99575C26.8189 8.02894 27.351 7.14086 28.1323 6.44383C28.9136 5.7468 29.9091 5.27212 30.9928 5.07981C32.0765 4.8875 33.1998 4.9862 34.2206 5.36343C35.2415 5.74066 36.114 6.37948 36.7279 7.1991C37.3417 8.01872 37.6694 8.98233 37.6694 9.96808C37.6677 11.2895 37.0785 12.5563 36.0312 13.4906C34.9839 14.425 33.5639 14.9506 32.0827 14.9521ZM32.0827 6.23005C31.254 6.23005 30.4439 6.44928 29.7549 6.86002C29.0658 7.27076 28.5288 7.85457 28.2116 8.5376C27.8945 9.22064 27.8115 9.97223 27.9732 10.6973C28.1349 11.4224 28.534 12.0885 29.1199 12.6113C29.7059 13.134 30.4525 13.4901 31.2653 13.6343C32.0781 13.7785 32.9205 13.7045 33.6862 13.4216C34.4518 13.1386 35.1062 12.6595 35.5666 12.0448C36.027 11.4301 36.2727 10.7074 36.2727 9.96808C36.2714 8.97705 35.8296 8.02693 35.0441 7.32617C34.2586 6.6254 33.1936 6.2312 32.0827 6.23005Z" fill="#3F3D56"/>
<path d="M48.8429 14.9521C47.738 14.9521 46.6578 14.6598 45.7391 14.1122C44.8203 13.5645 44.1043 12.7861 43.6815 11.8754C43.2586 10.9647 43.1479 9.96256 43.3635 8.99575C43.5791 8.02894 44.1111 7.14087 44.8925 6.44383C45.6738 5.7468 46.6693 5.27212 47.753 5.07981C48.8367 4.8875 49.96 4.9862 50.9809 5.36343C52.0017 5.74065 52.8743 6.37947 53.4881 7.19909C54.102 8.01871 54.4296 8.98232 54.4296 9.96807C54.4279 11.2895 53.8388 12.5563 52.7914 13.4906C51.7441 14.425 50.3241 14.9506 48.8429 14.9521ZM48.8429 6.23005C48.0142 6.23005 47.2041 6.44928 46.515 6.86002C45.826 7.27076 45.2889 7.85456 44.9718 8.53759C44.6546 9.22063 44.5717 9.97222 44.7334 10.6973C44.895 11.4224 45.2941 12.0885 45.8801 12.6113C46.4661 13.134 47.2127 13.4901 48.0255 13.6343C48.8383 13.7785 49.6807 13.7045 50.4464 13.4216C51.212 13.1386 51.8664 12.6595 52.3268 12.0448C52.7872 11.4301 53.033 10.7074 53.033 9.96808C53.0317 8.97704 52.5898 8.02694 51.8043 7.32617C51.0188 6.6254 49.9538 6.2312 48.8429 6.23005Z" fill="#3F3D56"/>
<path d="M587.959 74.2736H1.01392V20.4252H587.959V74.2736ZM4.10309 69.3783H584.87V25.3205H4.10309V69.3783Z" fill="#3F3D56"/>
<text fill="black" xml:space="preserve" style="white-space: pre" font-family="Roboto" font-size="48" font-weight="bold" letter-spacing="0em"><tspan x="237" y="63.3047">O Mnie</tspan></text>
<text fill="black" xml:space="preserve" style="white-space: pre" font-family="Roboto" font-size="20" letter-spacing="0em"><tspan x="6" y="118.336">Nazywam si&#x119; Filip Redlich i jestem studentem. &#10;</tspan><tspan x="6" y="141.336">Moje g&#x142;&#xf3;wne zainteresowanie z bran&#x17c;y IT jest web development.&#10;</tspan><tspan x="6" y="164.336">Moim g&#x142;&#xf3;wnym zaj&#x119;ciem jest tworzenie back-end&#x2019;u stron, a tak&#x17c;e&#10;</tspan><tspan x="6" y="187.336">zarz&#x105;dzanie bazami danych. Po za tym interesuje si&#x119; tak&#x17c;e &#10;</tspan><tspan x="6" y="210.336">programowaniem r&#xf3;&#x17c;nych program&#xf3;w, szczeg&#xf3;lnie takich&#10;</tspan><tspan x="6" y="233.336">kt&#xf3;re u&#x142;atwi&#x105; mi &#x17c;ycie. Moj&#x105; idealn&#x105; prac&#x105; by&#x142;o by pisanie kodu&#10;</tspan><tspan x="6" y="256.336">kt&#xf3;ry tworzy czy to strony czy te&#x17c; aplikacje.</tspan></text>
</svg>
