<svg width="924" height="476" viewBox="0 0 924 476" fill="none" xmlns="http://www.w3.org/2000/svg">
<g id="Bio">
<g id="guy">
<path id="Vector" d="M121.053 348.662H151.866L227.8 319.215C227.8 319.215 281.723 297.402 277.321 338.846C272.919 380.29 265.216 435.911 265.216 435.911C265.216 435.911 241.005 425.005 227.8 428.277C214.594 431.549 223.398 361.749 223.398 361.749C223.398 361.749 115.551 413.008 105.646 406.465C95.7419 399.921 93.5409 354.115 93.5409 354.115L121.053 348.662Z" fill="#425D8C"/>
<path id="Vector_2" opacity="0.1" d="M121.053 348.662H151.866L227.8 319.215C227.8 319.215 281.723 297.402 277.321 338.846C272.919 380.29 265.216 435.911 265.216 435.911C265.216 435.911 241.005 425.005 227.8 428.277C214.594 431.549 223.398 361.749 223.398 361.749C223.398 361.749 115.551 413.008 105.646 406.465C95.7419 399.921 93.5409 354.115 93.5409 354.115L121.053 348.662Z" fill="black"/>
<path id="Vector_3" opacity="0.1" d="M147.464 210.153L171.675 257.049C171.675 257.049 166.173 279.952 157.369 282.134C148.565 284.315 111.149 253.777 111.149 253.777L147.464 210.153Z" fill="black"/>
<path id="Vector_4" d="M442.823 324.38L449.975 353.616C450.055 353.942 450.042 354.284 449.939 354.603L417.498 455.074C417.369 455.472 417.107 455.814 416.755 456.043C416.403 456.273 415.982 456.376 415.562 456.335C415.143 456.294 414.75 456.111 414.45 455.818C414.149 455.525 413.96 455.139 413.912 454.723L409.424 415.584C409.394 415.324 409.421 415.061 409.503 414.812L439.281 324.245C439.405 323.867 439.65 323.539 439.979 323.312C440.308 323.085 440.703 322.97 441.104 322.986C441.504 323.001 441.889 323.145 442.199 323.397C442.51 323.649 442.729 323.994 442.823 324.38Z" fill="#2F2E41"/>
<path id="Vector_5" d="M440.193 326.849L446.795 351.934L418.182 443.546L411.58 415.19L440.193 326.849Z" fill="#F2F2F2"/>
<path id="Vector_6" d="M296.029 463.177C297.13 466.449 410.479 462.086 411.58 460.996C412.539 459.63 413.351 458.168 414.001 456.633C415.035 454.452 415.982 452.271 415.982 452.271L411.58 416.956L299.331 413.008C299.331 413.008 296.525 442.935 295.952 456.633C295.809 460.09 295.809 462.523 296.029 463.177Z" fill="#2F2E41"/>
<path id="Vector_7" opacity="0.1" d="M397.274 421.734L399.474 452.271H349.953V421.734H397.274Z" fill="black"/>
<path id="Vector_8" opacity="0.1" d="M333.446 431.549L333.741 431.491L332.345 444.637H304.833V431.549H333.446Z" fill="black"/>
<path id="Vector_9" opacity="0.1" d="M296.029 463.177C297.13 466.449 410.479 462.086 411.58 460.996C412.539 459.63 413.351 458.168 414.001 456.633H295.952C295.809 460.09 295.809 462.523 296.029 463.177Z" fill="black"/>
<g id="cialo">
<path id="Vector_10" d="M169.6 253.029L206.89 306.127L293.828 378.108C293.828 378.108 374.164 396.649 363.159 409.737C352.154 422.824 285.025 396.649 285.025 396.649C285.025 396.649 184.881 324.668 181.579 319.215C178.278 313.762 141.962 262.502 141.962 262.502L169.6 253.029Z" fill="#FFDAB0"/>
<path id="Vector_11" opacity="0.1" d="M169.6 253.029L206.89 306.127L293.828 378.108C293.828 378.108 374.164 396.649 363.159 409.737C352.154 422.824 285.025 396.649 285.025 396.649C285.025 396.649 184.881 324.668 181.579 319.215C178.278 313.762 141.962 262.502 141.962 262.502L169.6 253.029Z" fill="black"/>
<path id="Vector_12" d="M163.972 194.884C191.322 194.884 213.493 172.911 213.493 145.806C213.493 118.701 191.322 96.7279 163.972 96.7279C136.622 96.7279 114.45 118.701 114.45 145.806C114.45 172.911 136.622 194.884 163.972 194.884Z" fill="#FFDAB0"/>
<path id="Vector_13" d="M160.67 189.431C160.67 189.431 144.163 217.787 140.862 233.056C137.56 248.324 91.34 202.518 91.34 202.518L85.2874 186.704C85.2874 186.704 128.756 166.528 125.455 150.168C122.153 133.809 160.67 189.431 160.67 189.431Z" fill="#FFDAB0"/>
<path id="Vector_14" d="M169.474 274.499L214.594 333.393L322.441 413.008C322.441 413.008 400.575 429.368 382.967 441.365C365.36 453.361 314.738 430.458 314.738 430.458C314.738 430.458 205.79 372.655 182.68 348.662C159.57 324.668 116.651 284.315 116.651 284.315L169.474 274.499Z" fill="#FFDAB0"/>
</g>
<path id="Vector_15" d="M108.948 366.112L122.153 386.833L200.967 362.26C218.26 356.869 237.222 358.853 252.56 368.429C266.316 377.018 275.12 390.651 255.312 410.827C215.694 451.18 189.283 429.368 189.283 429.368C189.283 429.368 56.1246 491.533 34.1149 460.996C12.1053 430.458 11.0049 415.19 11.0049 415.19C11.0049 415.19 95.7419 362.84 108.948 366.112Z" fill="#425D8C"/>
<path id="Vector_16" d="M274.02 438.093C274.02 438.093 309.235 460.996 267.417 471.902C225.599 482.808 194.785 467.539 194.785 467.539C194.785 467.539 158.469 467.539 158.469 448.999C158.469 430.458 170.575 428.277 170.575 428.277L207.991 433.73C207.991 433.73 253.111 421.733 274.02 438.093Z" fill="#383838"/>
<path id="Vector_17" d="M204.597 133.46C207.967 134.949 211.31 136.712 214.974 137.144C218.639 137.576 222.811 136.308 224.545 133.08C225.482 131.336 225.589 129.285 225.633 127.31C225.765 121.321 225.328 114.847 221.499 110.212C219.062 107.263 215.504 105.403 212.981 102.525C211.174 100.463 209.971 97.9639 208.676 95.553C203.769 86.421 196.505 77.6444 186.41 75.0117C182.194 73.9124 177.771 73.966 173.413 74.027L147.989 74.3825C143.875 74.44 139.697 74.5068 135.759 75.687C127.575 78.139 121.617 84.9589 116.16 91.4809C112.078 96.3603 107.984 101.29 104.921 106.854C100.528 114.974 98.3064 124.073 98.4685 133.285C98.4344 135.647 98.7422 138.002 99.3824 140.278C100.131 142.366 101.059 144.386 102.156 146.316C106.924 155.597 109.755 167.189 104.385 176.142C113.713 172.366 122.941 167.415 129.094 159.508C131.847 155.971 134.005 151.83 137.673 149.234C141.342 146.638 147.318 146.413 149.672 150.223C150.481 151.764 150.898 153.477 150.885 155.215C151.057 158.074 151.053 161.044 152.276 163.639C153.499 166.235 156.413 168.329 159.196 167.552C163.987 166.215 163.528 158.927 167.219 155.616C170.021 153.102 174.345 153.582 177.946 152.441C182.141 151.111 185.289 147.51 187.082 143.523C188.446 140.492 188.426 132.562 191.006 130.921C194.241 128.863 201.598 132.135 204.597 133.46Z" fill="#2F2E41"/>
<g id="clothes">
<path id="Vector_18" d="M147.464 210.153L171.675 257.049C171.675 257.049 166.173 279.952 157.369 282.134C148.565 284.315 111.149 253.777 111.149 253.777L147.464 210.153Z" fill="#62B4A5"/>
<path id="Vector_19" d="M81.3562 181.531C83.584 180.942 85.9295 180.948 88.1543 181.548C95.2185 183.428 111.055 188.403 114.45 195.974C118.852 205.79 134.259 221.059 134.259 221.059C134.259 221.059 155.168 241.781 150.766 255.959C146.364 270.137 129.857 286.496 129.857 286.496C129.857 286.496 134.259 354.115 112.249 371.565C90.2394 389.015 81.4356 377.018 81.4356 393.377C81.4356 409.736 13.2058 460.996 0 429.368C0 429.368 6.60289 370.474 4.40193 349.752C2.23271 329.329 5.40833 201.908 81.3562 181.531Z" fill="#62B4A5"/>
<path id="Vector_20" d="M116.651 209.062C116.651 209.062 183.78 258.14 171.675 278.862C171.675 278.862 130.957 298.493 122.153 297.402C113.35 296.312 79.2346 258.14 70.4308 254.868C61.6269 251.596 57.225 192.703 116.651 209.062Z" fill="#62B4A5"/>
</g>
</g>
<g id="bio">
<path id="Vector_21" d="M348.926 16.1982C351.626 16.1982 353.814 14.2456 353.814 11.8371C353.814 9.42851 351.626 7.47598 348.926 7.47598C346.226 7.47598 344.037 9.42851 344.037 11.8371C344.037 14.2456 346.226 16.1982 348.926 16.1982Z" fill="#6C63FF"/>
<path id="Vector_22" d="M365.686 16.1982C368.386 16.1982 370.574 14.2456 370.574 11.8371C370.574 9.42851 368.386 7.47598 365.686 7.47598C362.986 7.47598 360.798 9.42851 360.798 11.8371C360.798 14.2456 362.986 16.1982 365.686 16.1982Z" fill="#6C63FF"/>
<path id="Vector_23" d="M382.446 16.1982C385.146 16.1982 387.334 14.2456 387.334 11.8371C387.334 9.42851 385.146 7.47598 382.446 7.47598C379.746 7.47598 377.558 9.42851 377.558 11.8371C377.558 14.2456 379.746 16.1982 382.446 16.1982Z" fill="#6C63FF"/>
<path id="bbody" d="M923 277H336V74H923V277ZM337.394 276.259H921.606V74.7409H337.394V276.259Z" fill="#3F3D56"/>
<path id="Vector_24" d="M924 74.0082H336.014V0H924V74.0082ZM337.411 73.7381H922.603V0.270103H337.411V73.7381Z" fill="#3F3D56"/>
<path id="Vector_25" d="M922.261 18.8988H335.658V20.1448H922.261V18.8988Z" fill="#3F3D56"/>
<path id="Vector_26" d="M350.323 14.9521C349.218 14.9521 348.138 14.6598 347.219 14.1122C346.3 13.5645 345.584 12.7861 345.161 11.8754C344.738 10.9647 344.628 9.96255 344.843 8.99575C345.059 8.02894 345.591 7.14086 346.372 6.44383C347.154 5.7468 348.149 5.27212 349.233 5.07981C350.317 4.8875 351.44 4.9862 352.461 5.36343C353.481 5.74066 354.354 6.37948 354.968 7.1991C355.582 8.01872 355.909 8.98233 355.909 9.96808C355.908 11.2895 355.319 12.5563 354.271 13.4906C353.224 14.425 351.804 14.9506 350.323 14.9521ZM350.323 6.23005C349.494 6.23005 348.684 6.44928 347.995 6.86002C347.306 7.27076 346.769 7.85457 346.452 8.5376C346.135 9.22064 346.052 9.97223 346.213 10.6973C346.375 11.4224 346.774 12.0885 347.36 12.6113C347.946 13.134 348.692 13.4901 349.505 13.6343C350.318 13.7785 351.161 13.7045 351.926 13.4216C352.692 13.1386 353.346 12.6595 353.807 12.0448C354.267 11.4301 354.513 10.7074 354.513 9.96808C354.511 8.97705 354.07 8.02693 353.284 7.32617C352.499 6.6254 351.434 6.2312 350.323 6.23005Z" fill="#3F3D56"/>
<path id="Vector_27" d="M367.083 14.9521C365.978 14.9521 364.898 14.6598 363.979 14.1122C363.06 13.5645 362.344 12.7861 361.921 11.8754C361.498 10.9647 361.388 9.96255 361.603 8.99575C361.819 8.02894 362.351 7.14086 363.132 6.44383C363.914 5.7468 364.909 5.27212 365.993 5.07981C367.077 4.8875 368.2 4.9862 369.221 5.36343C370.241 5.74066 371.114 6.37948 371.728 7.1991C372.342 8.01872 372.669 8.98233 372.669 9.96808C372.668 11.2895 372.079 12.5563 371.031 13.4906C369.984 14.425 368.564 14.9506 367.083 14.9521ZM367.083 6.23005C366.254 6.23005 365.444 6.44928 364.755 6.86002C364.066 7.27076 363.529 7.85457 363.212 8.5376C362.895 9.22064 362.812 9.97223 362.973 10.6973C363.135 11.4224 363.534 12.0885 364.12 12.6113C364.706 13.134 365.452 13.4901 366.265 13.6343C367.078 13.7785 367.921 13.7045 368.686 13.4216C369.452 13.1386 370.106 12.6595 370.567 12.0448C371.027 11.4301 371.273 10.7074 371.273 9.96808C371.271 8.97705 370.83 8.02693 370.044 7.32617C369.259 6.6254 368.194 6.2312 367.083 6.23005Z" fill="#3F3D56"/>
<path id="Vector_28" d="M383.843 14.9521C382.738 14.9521 381.658 14.6598 380.739 14.1122C379.82 13.5645 379.104 12.7861 378.681 11.8754C378.259 10.9647 378.148 9.96256 378.364 8.99575C378.579 8.02894 379.111 7.14087 379.892 6.44383C380.674 5.7468 381.669 5.27212 382.753 5.07981C383.837 4.8875 384.96 4.9862 385.981 5.36343C387.002 5.74065 387.874 6.37947 388.488 7.19909C389.102 8.01871 389.43 8.98232 389.43 9.96807C389.428 11.2895 388.839 12.5563 387.791 13.4906C386.744 14.425 385.324 14.9506 383.843 14.9521ZM383.843 6.23005C383.014 6.23005 382.204 6.44928 381.515 6.86002C380.826 7.27076 380.289 7.85456 379.972 8.53759C379.655 9.22063 379.572 9.97222 379.733 10.6973C379.895 11.4224 380.294 12.0885 380.88 12.6113C381.466 13.134 382.213 13.4901 383.025 13.6343C383.838 13.7785 384.681 13.7045 385.446 13.4216C386.212 13.1386 386.866 12.6595 387.327 12.0448C387.787 11.4301 388.033 10.7074 388.033 9.96808C388.032 8.97704 387.59 8.02694 386.804 7.32617C386.019 6.6254 384.954 6.2312 383.843 6.23005Z" fill="#3F3D56"/>
<path id="btitle" d="M922.959 74.2736H336.014V20.4252H922.959V74.2736ZM339.103 69.3783H919.87V25.3205H339.103V69.3783Z" fill="#3F3D56"/>
<text id="btt" fill="black" xml:space="preserve" style="white-space: pre" font-family="Roboto" font-size="36" font-weight="bold" letter-spacing="0em"><tspan x="572" y="63.3047">O Mnie</tspan></text>
<text id="btb" fill="black" xml:space="preserve" style="white-space: pre" font-family="Roboto" font-size="20" letter-spacing="0em"><tspan x="341" y="118.336">Nazywam si&#x119; Filip Redlich i jestem studentem. &#10;</tspan><tspan x="341" y="141.336">Moje g&#x142;&#xf3;wne zainteresowanie z bran&#x17c;y IT jest web development.&#10;</tspan><tspan x="341" y="164.336">Moim g&#x142;&#xf3;wnym zaj&#x119;ciem jest tworzenie back-end&#x2019;u stron, a tak&#x17c;e&#10;</tspan><tspan x="341" y="187.336">zarz&#x105;dzanie bazami danych. Po za tym interesuje si&#x119; tak&#x17c;e &#10;</tspan><tspan x="341" y="210.336">programowaniem r&#xf3;&#x17c;nych aplikacji, szczeg&#xf3;lnie takich&#10;</tspan><tspan x="341" y="233.336">kt&#xf3;re u&#x142;atwi&#x105; mi &#x17c;ycie. Moj&#x105; idealn&#x105; prac&#x105; by&#x142;o by pisanie kodu&#10;</tspan><tspan x="341" y="256.336">kt&#xf3;ry tworzy czy to strony czy te&#x17c; aplikacje.</tspan></text>
</g>
</g>
</svg>
