<svg width="952" height="476" viewBox="0 0 952 476" fill="none" xmlns="http://www.w3.org/2000/svg">
<g id="bio">
<g id="guy">
<path id="Vector" d="M124.721 348.787H156.468L234.703 319.329C234.703 319.329 290.26 297.509 285.725 338.968C281.19 380.426 273.253 436.068 273.253 436.068C273.253 436.068 248.309 425.158 234.703 428.431C221.097 431.704 230.167 361.879 230.167 361.879C230.167 361.879 119.052 413.156 108.848 406.61C98.6431 400.064 96.3755 354.242 96.3755 354.242L124.721 348.787Z" fill="#425D8C"/>
<path id="Vector_2" opacity="0.1" d="M124.721 348.787H156.468L234.703 319.329C234.703 319.329 290.26 297.509 285.725 338.968C281.19 380.426 273.253 436.068 273.253 436.068C273.253 436.068 248.309 425.158 234.703 428.431C221.097 431.704 230.167 361.879 230.167 361.879C230.167 361.879 119.052 413.156 108.848 406.61C98.6431 400.064 96.3755 354.242 96.3755 354.242L124.721 348.787Z" fill="black"/>
<path id="Vector_3" opacity="0.1" d="M151.933 210.228L176.877 257.142C176.877 257.142 171.208 280.053 162.138 282.235C153.067 284.417 114.517 253.868 114.517 253.868L151.933 210.228Z" fill="black"/>
<path id="Vector_4" d="M456.242 324.497L463.61 353.743C463.693 354.069 463.68 354.411 463.574 354.73L430.149 455.237C430.017 455.635 429.747 455.977 429.384 456.207C429.021 456.436 428.587 456.539 428.155 456.498C427.723 456.457 427.318 456.275 427.009 455.982C426.699 455.688 426.504 455.302 426.455 454.887L421.831 415.733C421.8 415.473 421.828 415.21 421.912 414.961L452.592 324.361C452.72 323.983 452.973 323.656 453.312 323.428C453.651 323.201 454.057 323.086 454.47 323.102C454.883 323.117 455.28 323.261 455.599 323.513C455.919 323.765 456.145 324.11 456.242 324.497Z" fill="#2F2E41"/>
<path id="Vector_5" d="M453.532 326.966L460.334 352.06L430.855 443.705L424.052 415.339L453.532 326.966Z" fill="#F2F2F2"/>
<path id="Vector_6" d="M305 463.343C306.134 466.616 422.918 462.252 424.052 461.161C425.041 459.795 425.877 458.332 426.546 456.797C427.612 454.615 428.587 452.433 428.587 452.433L424.052 417.106L308.401 413.156C308.401 413.156 305.51 443.094 304.92 456.797C304.773 460.256 304.773 462.688 305 463.343Z" fill="#2F2E41"/>
<path id="Vector_7" opacity="0.1" d="M409.312 421.885L411.58 452.433H360.558V421.885H409.312Z" fill="black"/>
<path id="Vector_8" opacity="0.1" d="M343.551 431.703L343.855 431.645L342.417 444.796H314.071V431.703H343.551Z" fill="black"/>
<path id="Vector_9" opacity="0.1" d="M305 463.343C306.134 466.616 422.918 462.252 424.052 461.161C425.041 459.795 425.877 458.332 426.546 456.797H304.92C304.773 460.255 304.773 462.688 305 463.343Z" fill="black"/>
<g id="cialo">
<path id="Vector_10" d="M174.739 253.12L213.16 306.237L302.732 378.244C302.732 378.244 385.502 396.791 374.164 409.883C362.825 422.976 293.662 396.791 293.662 396.791C293.662 396.791 190.483 324.784 187.082 319.329C183.68 313.874 146.264 262.597 146.264 262.597L174.739 253.12Z" fill="#FFDAB0"/>
<path id="Vector_11" opacity="0.1" d="M174.739 253.12L213.16 306.237L302.732 378.244C302.732 378.244 385.502 396.791 374.164 409.883C362.825 422.976 293.662 396.791 293.662 396.791C293.662 396.791 190.483 324.784 187.082 319.329C183.68 313.874 146.264 262.597 146.264 262.597L174.739 253.12Z" fill="black"/>
<path id="Vector_12" d="M168.941 194.954C197.119 194.954 219.963 172.973 219.963 145.858C219.963 118.743 197.119 96.7626 168.941 96.7626C140.762 96.7626 117.918 118.743 117.918 145.858C117.918 172.973 140.762 194.954 168.941 194.954Z" fill="#FFDAB0"/>
<path id="Vector_13" d="M165.539 189.499C165.539 189.499 148.532 217.865 145.13 233.139C141.729 248.413 94.1079 202.591 94.1079 202.591L87.8718 186.771C87.8718 186.771 132.658 166.587 129.257 150.222C125.855 133.857 165.539 189.499 165.539 189.499Z" fill="#FFDAB0"/>
<path id="Vector_14" d="M174.61 274.598L221.097 333.513L332.212 413.156C332.212 413.156 412.714 429.522 394.573 441.523C376.431 453.524 324.275 430.613 324.275 430.613C324.275 430.613 212.026 372.789 188.216 348.787C164.405 324.784 120.186 284.417 120.186 284.417L174.61 274.598Z" fill="#FFDAB0"/>
</g>
<path id="Vector_15" d="M112.249 366.243L125.855 386.972L207.057 362.39C224.874 356.997 244.411 358.981 260.214 368.561C274.387 377.153 283.457 390.791 263.048 410.974C222.23 451.342 195.019 429.522 195.019 429.522C195.019 429.522 57.8253 491.709 35.1487 461.161C12.4722 430.613 11.3384 415.338 11.3384 415.338C11.3384 415.338 98.6431 362.97 112.249 366.243Z" fill="#425D8C"/>
<path id="Vector_16" d="M282.323 438.25C282.323 438.25 318.606 461.161 275.52 472.071C232.435 482.981 200.688 467.707 200.688 467.707C200.688 467.707 163.271 467.707 163.271 449.16C163.271 430.613 175.743 428.431 175.743 428.431L214.294 433.886C214.294 433.886 260.781 421.885 282.323 438.25Z" fill="#383838"/>
<path id="Vector_17" d="M210.797 133.508C214.269 134.998 217.713 136.761 221.488 137.193C225.264 137.626 229.563 136.357 231.35 133.128C232.315 131.383 232.425 129.331 232.47 127.356C232.607 121.365 232.156 114.888 228.211 110.252C225.7 107.301 222.034 105.441 219.435 102.562C217.573 100.499 216.334 97.9991 214.999 95.5873C209.944 86.452 202.46 77.6723 192.058 75.0386C187.715 73.9389 183.158 73.9926 178.668 74.0536L152.473 74.4091C148.235 74.4667 143.93 74.5336 139.872 75.7141C131.441 78.1671 125.303 84.9893 119.68 91.5137C115.474 96.3948 111.257 101.326 108.1 106.892C103.574 115.015 101.285 124.118 101.452 133.333C101.417 135.696 101.734 138.052 102.394 140.329C103.166 142.417 104.122 144.437 105.252 146.369C110.164 155.653 113.081 167.249 107.549 176.205C117.158 172.428 126.667 167.475 133.006 159.565C135.842 156.026 138.066 151.884 141.845 149.287C145.625 146.691 151.783 146.466 154.208 150.277C155.041 151.818 155.47 153.532 155.458 155.27C155.635 158.131 155.63 161.102 156.89 163.698C158.151 166.294 161.153 168.389 164.02 167.612C168.956 166.274 168.484 158.984 172.286 155.672C175.173 153.157 179.628 153.638 183.338 152.496C187.66 151.166 190.904 147.563 192.752 143.574C194.156 140.543 194.136 132.61 196.794 130.968C200.127 128.91 207.707 132.183 210.797 133.508Z" fill="#2F2E41"/>
<g id="clothes">
<path id="Vector_18" d="M151.933 210.228L176.877 257.142C176.877 257.142 171.208 280.053 162.138 282.235C153.067 284.417 114.517 253.868 114.517 253.868L151.933 210.228Z" fill="#62B4A5"/>
<path id="Vector_19" d="M83.8215 181.596C86.1168 181.007 88.5334 181.013 90.8256 181.613C98.1039 183.493 114.42 188.471 117.918 196.045C122.454 205.864 138.327 221.138 138.327 221.138C138.327 221.138 159.87 241.867 155.335 256.051C150.799 270.234 133.792 286.599 133.792 286.599C133.792 286.599 138.327 354.242 115.651 371.698C92.974 389.154 83.9033 377.153 83.9033 393.518C83.9033 409.883 13.606 461.161 0 429.522C0 429.522 6.80298 370.607 4.53532 349.878C2.30036 329.447 5.57222 201.98 83.8215 181.596Z" fill="#62B4A5"/>
<path id="Vector_20" d="M120.186 209.137C120.186 209.137 189.349 258.233 176.877 278.962C176.877 278.962 134.926 298.6 125.855 297.509C116.784 296.418 81.6357 258.233 72.5651 254.959C63.4944 251.686 58.9591 192.772 120.186 209.137Z" fill="#62B4A5"/>
</g>
</g>
<g id="bio-small">
<path id="Vector_21" d="M342.701 15.6775C345.488 15.6775 347.748 13.7877 347.748 11.4566C347.748 9.12545 345.488 7.23569 342.701 7.23569C339.913 7.23569 337.653 9.12545 337.653 11.4566C337.653 13.7877 339.913 15.6775 342.701 15.6775Z" fill="#6C63FF"/>
<path id="Vector_22" d="M360.007 15.6775C362.795 15.6775 365.054 13.7877 365.054 11.4566C365.054 9.12545 362.795 7.23569 360.007 7.23569C357.219 7.23569 354.959 9.12545 354.959 11.4566C354.959 13.7877 357.219 15.6775 360.007 15.6775Z" fill="#6C63FF"/>
<path id="Vector_23" d="M377.313 15.6775C380.101 15.6775 382.361 13.7877 382.361 11.4566C382.361 9.12545 380.101 7.23569 377.313 7.23569C374.525 7.23569 372.265 9.12545 372.265 11.4566C372.265 13.7877 374.525 15.6775 377.313 15.6775Z" fill="#6C63FF"/>
<path id="bbody" d="M952 268H329V72H952V268ZM330.48 267.285H950.52V72.7153H330.48V267.285Z" fill="#3F3D56"/>
<path id="Vector_24" d="M952 72H329V0H952V72ZM330.48 71.7372H950.52V0.262774H330.48V71.7372Z" fill="#3F3D56"/>
<path id="Vector_25" d="M934.716 18.2914H329V19.4973H934.716V18.2914Z" fill="#3F3D56"/>
<path id="Vector_26" d="M344.143 14.4715C343.002 14.4715 341.887 14.1886 340.938 13.6585C339.989 13.1285 339.25 12.3751 338.813 11.4937C338.377 10.6122 338.263 9.64231 338.485 8.70658C338.708 7.77084 339.257 6.91132 340.064 6.23669C340.871 5.56207 341.899 5.10264 343.018 4.91651C344.137 4.73038 345.296 4.82591 346.351 5.19102C347.405 5.55612 348.306 6.17441 348.939 6.96768C349.573 7.76096 349.912 8.69359 349.912 9.64766C349.91 10.9266 349.302 12.1527 348.22 13.057C347.139 13.9613 345.672 14.47 344.143 14.4715ZM344.143 6.02978C343.287 6.02978 342.451 6.24197 341.739 6.6395C341.028 7.03704 340.473 7.60208 340.146 8.26316C339.818 8.92424 339.733 9.65167 339.9 10.3535C340.067 11.0553 340.479 11.6999 341.084 12.2059C341.689 12.7119 342.46 13.0564 343.299 13.196C344.138 13.3356 345.008 13.264 345.799 12.9901C346.589 12.7163 347.265 12.2526 347.74 11.6576C348.216 11.0627 348.469 10.3632 348.469 9.64766C348.468 8.68848 348.012 7.76891 347.201 7.09066C346.39 6.41242 345.29 6.0309 344.143 6.02978Z" fill="#3F3D56"/>
<path id="Vector_27" d="M361.449 14.4715C360.308 14.4715 359.193 14.1886 358.244 13.6585C357.295 13.1285 356.556 12.3751 356.119 11.4937C355.683 10.6122 355.569 9.64231 355.791 8.70658C356.014 7.77084 356.563 6.91132 357.37 6.23669C358.177 5.56207 359.205 5.10264 360.324 4.91651C361.443 4.73038 362.603 4.82591 363.657 5.19102C364.711 5.55612 365.612 6.17441 366.246 6.96768C366.879 7.76096 367.218 8.69359 367.218 9.64766C367.216 10.9266 366.608 12.1527 365.526 13.057C364.445 13.9613 362.978 14.47 361.449 14.4715ZM361.449 6.02978C360.593 6.02978 359.757 6.24197 359.045 6.6395C358.334 7.03704 357.779 7.60208 357.452 8.26316C357.124 8.92424 357.039 9.65167 357.206 10.3535C357.373 11.0553 357.785 11.6999 358.39 12.2059C358.995 12.7119 359.766 13.0564 360.605 13.196C361.444 13.3356 362.314 13.264 363.105 12.9901C363.895 12.7163 364.571 12.2526 365.046 11.6576C365.522 11.0627 365.776 10.3632 365.776 9.64766C365.774 8.68848 365.318 7.76891 364.507 7.09066C363.696 6.41242 362.596 6.0309 361.449 6.02978Z" fill="#3F3D56"/>
<path id="Vector_28" d="M378.755 14.4715C377.614 14.4715 376.499 14.1886 375.55 13.6585C374.602 13.1285 373.862 12.3751 373.426 11.4937C372.989 10.6122 372.875 9.64231 373.097 8.70658C373.32 7.77084 373.869 6.91132 374.676 6.23669C375.483 5.56207 376.511 5.10264 377.63 4.91651C378.749 4.73038 379.909 4.82591 380.963 5.19101C382.017 5.55612 382.918 6.17439 383.552 6.96767C384.186 7.76094 384.524 8.69358 384.524 9.64765C384.522 10.9266 383.914 12.1527 382.832 13.057C381.751 13.9613 380.285 14.47 378.755 14.4715ZM378.755 6.02978C377.9 6.02978 377.063 6.24196 376.352 6.6395C375.64 7.03704 375.086 7.60207 374.758 8.26315C374.431 8.92423 374.345 9.65166 374.512 10.3535C374.679 11.0553 375.091 11.6999 375.696 12.2059C376.301 12.7118 377.072 13.0564 377.911 13.196C378.75 13.3356 379.62 13.264 380.411 12.9901C381.202 12.7163 381.877 12.2526 382.353 11.6576C382.828 11.0627 383.082 10.3632 383.082 9.64765C383.081 8.68848 382.624 7.76891 381.813 7.09067C381.002 6.41242 379.902 6.0309 378.755 6.02978Z" fill="#3F3D56"/>
<path id="btitle" d="M952 72H329V20H952V72ZM332.279 67.2727H948.721V24.7273H332.279V67.2727Z" fill="#3F3D56"/>
<text id="btt" fill="black" xml:space="preserve" style="white-space: pre" font-family="Roboto" font-size="36" font-weight="bold" letter-spacing="0em"><tspan x="581" y="59.3047">O Mnie</tspan></text>
<text id="btb" fill="black" xml:space="preserve" style="white-space: pre" font-family="Roboto" font-size="20" letter-spacing="0em"><tspan x="341" y="108.336">Nazywam si&#x119; Filip Redlich i jestem studentem Teleinformatyki. &#10;</tspan><tspan x="341" y="131.336">Moje g&#x142;&#xf3;wne zainteresowanie w bran&#x17c;y IT jest tworzenie stron &#10;</tspan><tspan x="341" y="154.336">internetowych oraz aplikacji u&#x142;atwiaj&#x105;cych &#x17c;ycie.&#10;</tspan><tspan x="341" y="177.336">Moje projekty sk&#x142;adaj&#x105; si&#x119; g&#x142;&#xf3;wnie z stron web po stronie backendu,&#10;</tspan><tspan x="341" y="200.336">ma&#x142;ych aplikacji automatyzuj&#x105;ce codzienne czynno&#x15b;ci oraz projekty&#10;</tspan><tspan x="341" y="223.336">hobbystyczne.</tspan></text>
</g>
</g>
</svg>
