<svg width="80" height="80" viewBox="0 0 80 80" fill="none" xmlns="http://www.w3.org/2000/svg">
<rect width="80" height="80" rx="40" fill="black"/>
<path d="M27.2188 43.4531H31.8906C31.7969 44.9844 31.375 46.3438 30.625 47.5312C29.8854 48.7188 28.849 49.6458 27.5156 50.3125C26.1927 50.9792 24.599 51.3125 22.7344 51.3125C21.276 51.3125 19.9688 51.0625 18.8125 50.5625C17.6562 50.0521 16.6667 49.3229 15.8438 48.375C15.0312 47.4271 14.4115 46.2812 13.9844 44.9375C13.5573 43.5938 13.3438 42.0885 13.3438 40.4219V38.8438C13.3438 37.1771 13.5625 35.6719 14 34.3281C14.4479 32.974 15.0833 31.8229 15.9062 30.875C16.7396 29.9271 17.7344 29.1979 18.8906 28.6875C20.0469 28.1771 21.3385 27.9219 22.7656 27.9219C24.6615 27.9219 26.2604 28.2656 27.5625 28.9531C28.875 29.6406 29.8906 30.5885 30.6094 31.7969C31.3385 33.0052 31.776 34.3802 31.9219 35.9219H27.2344C27.1823 35.0052 27 34.2292 26.6875 33.5938C26.375 32.9479 25.901 32.4635 25.2656 32.1406C24.6406 31.8073 23.8073 31.6406 22.7656 31.6406C21.9844 31.6406 21.3021 31.7865 20.7188 32.0781C20.1354 32.3698 19.6458 32.8125 19.25 33.4062C18.8542 34 18.5573 34.75 18.3594 35.6562C18.1719 36.5521 18.0781 37.6042 18.0781 38.8125V40.4219C18.0781 41.599 18.1667 42.6354 18.3438 43.5312C18.5208 44.4167 18.7917 45.1667 19.1562 45.7812C19.5312 46.3854 20.0104 46.8438 20.5938 47.1562C21.1875 47.4583 21.901 47.6094 22.7344 47.6094C23.7135 47.6094 24.5208 47.4531 25.1562 47.1406C25.7917 46.8281 26.276 46.3646 26.6094 45.75C26.9531 45.1354 27.1562 44.3698 27.2188 43.4531ZM49.4062 38.3281V42.25H33.8125V38.3281H49.4062ZM43.75 32.1562V48.7188H39.4844V32.1562H43.75ZM66.8438 38.3281V42.25H51.25V38.3281H66.8438ZM61.1875 32.1562V48.7188H56.9219V32.1562H61.1875Z" fill="white"/>
</svg>
