<svg width="229" height="75" viewBox="0 0 229 75" fill="none" xmlns="http://www.w3.org/2000/svg">
<g filter="url(#filter0_d_106_5)">
<path d="M13.4375 13.5V59H4.0625V13.5H13.4375ZM31.5625 32.9375V40.25H10.875V32.9375H31.5625ZM33.75 13.5V20.8438H10.875V13.5H33.75ZM36.5 42.4375V41.7812C36.5 39.3021 36.8542 37.0208 37.5625 34.9375C38.2708 32.8333 39.3021 31.0104 40.6562 29.4688C42.0104 27.9271 43.6771 26.7292 45.6562 25.875C47.6354 25 49.9062 24.5625 52.4688 24.5625C55.0312 24.5625 57.3125 25 59.3125 25.875C61.3125 26.7292 62.9896 27.9271 64.3438 29.4688C65.7188 31.0104 66.7604 32.8333 67.4688 34.9375C68.1771 37.0208 68.5312 39.3021 68.5312 41.7812V42.4375C68.5312 44.8958 68.1771 47.1771 67.4688 49.2812C66.7604 51.3646 65.7188 53.1875 64.3438 54.75C62.9896 56.2917 61.3229 57.4896 59.3438 58.3438C57.3646 59.1979 55.0938 59.625 52.5312 59.625C49.9688 59.625 47.6875 59.1979 45.6875 58.3438C43.7083 57.4896 42.0312 56.2917 40.6562 54.75C39.3021 53.1875 38.2708 51.3646 37.5625 49.2812C36.8542 47.1771 36.5 44.8958 36.5 42.4375ZM45.5 41.7812V42.4375C45.5 43.8542 45.625 45.1771 45.875 46.4062C46.125 47.6354 46.5208 48.7188 47.0625 49.6562C47.625 50.5729 48.3542 51.2917 49.25 51.8125C50.1458 52.3333 51.2396 52.5938 52.5312 52.5938C53.7812 52.5938 54.8542 52.3333 55.75 51.8125C56.6458 51.2917 57.3646 50.5729 57.9062 49.6562C58.4479 48.7188 58.8438 47.6354 59.0938 46.4062C59.3646 45.1771 59.5 43.8542 59.5 42.4375V41.7812C59.5 40.4062 59.3646 39.1146 59.0938 37.9062C58.8438 36.6771 58.4375 35.5938 57.875 34.6562C57.3333 33.6979 56.6146 32.9479 55.7188 32.4062C54.8229 31.8646 53.7396 31.5938 52.4688 31.5938C51.1979 31.5938 50.1146 31.8646 49.2188 32.4062C48.3438 32.9479 47.625 33.6979 47.0625 34.6562C46.5208 35.5938 46.125 36.6771 45.875 37.9062C45.625 39.1146 45.5 40.4062 45.5 41.7812ZM83.0625 32.5625V59H74.0625V25.1875H82.5312L83.0625 32.5625ZM93.25 24.9688L93.0938 33.3125C92.6562 33.25 92.125 33.1979 91.5 33.1562C90.8958 33.0938 90.3438 33.0625 89.8438 33.0625C88.5729 33.0625 87.4688 33.2292 86.5312 33.5625C85.6146 33.875 84.8438 34.3438 84.2188 34.9688C83.6146 35.5938 83.1562 36.3542 82.8438 37.25C82.5521 38.1458 82.3854 39.1667 82.3438 40.3125L80.5312 39.75C80.5312 37.5625 80.75 35.5521 81.1875 33.7188C81.625 31.8646 82.2604 30.25 83.0938 28.875C83.9479 27.5 84.9896 26.4375 86.2188 25.6875C87.4479 24.9375 88.8542 24.5625 90.4375 24.5625C90.9375 24.5625 91.4479 24.6042 91.9688 24.6875C92.4896 24.75 92.9167 24.8438 93.25 24.9688ZM117.5 50.9062V25.1875H126.5V59H118.031L117.5 50.9062ZM118.5 43.9688L121.156 43.9062C121.156 46.1562 120.896 48.25 120.375 50.1875C119.854 52.1042 119.073 53.7708 118.031 55.1875C116.99 56.5833 115.677 57.6771 114.094 58.4688C112.51 59.2396 110.646 59.625 108.5 59.625C106.854 59.625 105.333 59.3958 103.938 58.9375C102.562 58.4583 101.375 57.7188 100.375 56.7188C99.3958 55.6979 98.625 54.3958 98.0625 52.8125C97.5208 51.2083 97.25 49.2812 97.25 47.0312V25.1875H106.25V47.0938C106.25 48.0938 106.365 48.9375 106.594 49.625C106.844 50.3125 107.188 50.875 107.625 51.3125C108.062 51.75 108.573 52.0625 109.156 52.25C109.76 52.4375 110.427 52.5312 111.156 52.5312C113.01 52.5312 114.469 52.1562 115.531 51.4062C116.615 50.6562 117.375 49.6354 117.812 48.3438C118.271 47.0312 118.5 45.5729 118.5 43.9688ZM142.375 32.1875V59H133.344V25.1875H141.812L142.375 32.1875ZM141.125 40.9062H138.625C138.625 38.5521 138.906 36.3854 139.469 34.4062C140.052 32.4062 140.896 30.6771 142 29.2188C143.125 27.7396 144.51 26.5938 146.156 25.7812C147.802 24.9688 149.708 24.5625 151.875 24.5625C153.375 24.5625 154.75 24.7917 156 25.25C157.25 25.6875 158.323 26.3854 159.219 27.3438C160.135 28.2812 160.844 29.5104 161.344 31.0312C161.844 32.5312 162.094 34.3333 162.094 36.4375V59H153.094V37.4375C153.094 35.8958 152.885 34.7083 152.469 33.875C152.052 33.0417 151.458 32.4583 150.688 32.125C149.938 31.7917 149.031 31.625 147.969 31.625C146.802 31.625 145.781 31.8646 144.906 32.3438C144.052 32.8229 143.344 33.4896 142.781 34.3438C142.219 35.1771 141.802 36.1562 141.531 37.2812C141.26 38.4062 141.125 39.6146 141.125 40.9062ZM161.25 39.875L158.031 40.2812C158.031 38.0729 158.302 36.0208 158.844 34.125C159.406 32.2292 160.229 30.5625 161.312 29.125C162.417 27.6875 163.781 26.5729 165.406 25.7812C167.031 24.9688 168.906 24.5625 171.031 24.5625C172.656 24.5625 174.135 24.8021 175.469 25.2812C176.802 25.7396 177.938 26.4792 178.875 27.5C179.833 28.5 180.562 29.8125 181.062 31.4375C181.583 33.0625 181.844 35.0521 181.844 37.4062V59H172.812V37.4062C172.812 35.8438 172.604 34.6562 172.188 33.8438C171.792 33.0104 171.208 32.4375 170.438 32.125C169.688 31.7917 168.792 31.625 167.75 31.625C166.667 31.625 165.719 31.8438 164.906 32.2812C164.094 32.6979 163.417 33.2812 162.875 34.0312C162.333 34.7812 161.927 35.6562 161.656 36.6562C161.385 37.6354 161.25 38.7083 161.25 39.875Z" fill="#1726A5"/>
</g>
<path d="M195.297 55.2695L200.473 37.8672H205.355L198.012 59H194.965L195.297 55.2695ZM191.332 37.8672L196.605 55.3477L196.859 59H193.812L186.43 37.8672H191.332ZM227.055 55.25V59H207.992V55.7773L217.25 45.6797C218.266 44.5339 219.066 43.5443 219.652 42.7109C220.238 41.8776 220.648 41.1289 220.883 40.4648C221.13 39.7878 221.254 39.1302 221.254 38.4922C221.254 37.5938 221.085 36.806 220.746 36.1289C220.421 35.4388 219.939 34.8984 219.301 34.5078C218.663 34.1042 217.888 33.9023 216.977 33.9023C215.922 33.9023 215.036 34.1302 214.32 34.5859C213.604 35.0417 213.064 35.6732 212.699 36.4805C212.335 37.2747 212.152 38.1862 212.152 39.2148H207.445C207.445 37.5612 207.823 36.0508 208.578 34.6836C209.333 33.3034 210.427 32.2096 211.859 31.4023C213.292 30.582 215.017 30.1719 217.035 30.1719C218.936 30.1719 220.551 30.4909 221.879 31.1289C223.207 31.7669 224.216 32.6719 224.906 33.8438C225.609 35.0156 225.961 36.4023 225.961 38.0039C225.961 38.8893 225.818 39.7682 225.531 40.6406C225.245 41.513 224.835 42.3854 224.301 43.2578C223.78 44.1172 223.161 44.9831 222.445 45.8555C221.729 46.7148 220.941 47.5872 220.082 48.4727L213.93 55.25H227.055Z" fill="#C93939"/>
<defs>
<filter id="filter0_d_106_5" x="0.0625" y="13.5" width="185.781" height="54.125" filterUnits="userSpaceOnUse" color-interpolation-filters="sRGB">
<feFlood flood-opacity="0" result="BackgroundImageFix"/>
<feColorMatrix in="SourceAlpha" type="matrix" values="0 0 0 0 0 0 0 0 0 0 0 0 0 0 0 0 0 0 127 0" result="hardAlpha"/>
<feOffset dy="4"/>
<feGaussianBlur stdDeviation="2"/>
<feComposite in2="hardAlpha" operator="out"/>
<feColorMatrix type="matrix" values="0 0 0 0 0 0 0 0 0 0 0 0 0 0 0 0 0 0 0.25 0"/>
<feBlend mode="normal" in2="BackgroundImageFix" result="effect1_dropShadow_106_5"/>
<feBlend mode="normal" in="SourceGraphic" in2="effect1_dropShadow_106_5" result="shape"/>
</filter>
</defs>
</svg>
